<svg width="14" height="14" viewBox="0 0 14 14" fill="none" xmlns="http://www.w3.org/2000/svg">
<path d="M12.8743 0.586073C13.2492 0.961128 13.4599 1.46974 13.4599 2.00007C13.4599 2.5304 13.2492 3.03902 12.8743 3.41407L4.07308 12.2153C3.75273 12.5354 3.35145 12.7625 2.91208 12.8723L0.621083 13.4453C0.537274 13.4662 0.449475 13.4651 0.366243 13.4419C0.283011 13.4188 0.207185 13.3746 0.146155 13.3134C0.0851257 13.2523 0.0409739 13.1764 0.0180032 13.0931C-0.00496748 13.0099 -0.00597366 12.9221 0.0150828 12.8383L0.587083 10.5483C0.696999 10.1085 0.924447 9.70679 1.24508 9.38629L10.0453 0.586073C10.231 0.40027 10.4515 0.252879 10.6942 0.152318C10.9369 0.0517584 11.1971 0 11.4598 0C11.7225 0 11.9826 0.0517584 12.2253 0.152318C12.4681 0.252879 12.6886 0.40027 12.8743 0.586073ZM9.3383 2.70607L1.95308 10.0943C1.76102 10.2866 1.62484 10.5275 1.55908 10.7913L1.18808 12.2743L2.67008 11.9033C2.93393 11.8372 3.17486 11.7007 3.36708 11.5083L10.7533 4.12207L9.3393 2.70807L9.3383 2.70607ZM10.7533 1.29307L10.0453 2.00007L11.4593 3.41407L12.1673 2.70707C12.3495 2.51847 12.4502 2.26587 12.448 2.00367C12.4457 1.74147 12.3405 1.49066 12.1551 1.30525C11.9697 1.11985 11.7189 1.01468 11.4567 1.0124C11.1945 1.01012 10.9419 1.11091 10.7533 1.29307Z" fill="white"/>
</svg>
