<svg width="14" height="14" viewBox="0 0 14 14" fill="none" xmlns="http://www.w3.org/2000/svg">
<path fill-rule="evenodd" clip-rule="evenodd" d="M0 5.92308C0 2.65185 2.65185 0 5.92308 0C9.1943 0 11.8462 2.65185 11.8462 5.92308C11.8462 7.36481 11.331 8.68623 10.4748 9.71334L13.8423 13.0808C14.0526 13.2911 14.0526 13.632 13.8423 13.8423C13.632 14.0526 13.2911 14.0526 13.0808 13.8423L9.71334 10.4748C8.68623 11.331 7.36481 11.8462 5.92308 11.8462C2.65185 11.8462 0 9.1943 0 5.92308ZM9.39012 9.30906C9.37539 9.32097 9.36115 9.33377 9.34746 9.34746C9.33377 9.36115 9.32097 9.37539 9.30906 9.39012C8.43549 10.2434 7.24069 10.7692 5.92308 10.7692C3.24662 10.7692 1.07692 8.59953 1.07692 5.92308C1.07692 3.24662 3.24662 1.07692 5.92308 1.07692C8.59953 1.07692 10.7692 3.24662 10.7692 5.92308C10.7692 7.24069 10.2434 8.43549 9.39012 9.30906Z" fill="#7B8395"/>
</svg>
